<?xml version="1.0" standalone="no"?>
<svg xmlns="http://www.w3.org/2000/svg" viewBox="0 0 125.76 36" width="125.76" height="36"><g fill="#2dae7f" color="#2dae7f" transform="translate(0 4) scale(0.2828283)"><svg width="99.0" height="99.0" x="0.0" y="0.0" viewBox="0 0 99 99"><path fill-rule="evenodd" clip-rule="evenodd" d="M4,45.75l56,30.16L94,63.85L66.08,49.311C61.721,53.34,55.891,55.8,49.5,55.8  c-10.97,0-20.26-7.25-23.38-17.239L4,45.75z M4,53.79l56,30.17l34-12.069L87.109,68.3L60,77.92l-49.02-26.4L4,53.79z M4,61.84L60,92  l34-12.07l-6.891-3.58L60,85.971l-49.02-26.41L4,61.84z M27.45,31.17c0,12.24,9.87,22.17,22.05,22.17  c12.18,0,22.05-9.93,22.05-22.17C71.55,18.93,61.68,9,49.5,9C37.32,9,27.45,18.93,27.45,31.17z M50.88,46.689h-3.76v-3.56  c-2.55-0.12-5.02-0.83-6.25-1.62l1.14-4.39c1.59,0.86,3.83,1.649,6.1,1.649c2.201,0,3.98-0.859,3.98-2.33  c0-1.439-1.51-2.34-4.36-3.279c-3.86-1.36-6.64-3.24-6.64-6.9c0-3.37,2.36-6.05,7.051-6.83v-3.69h3.719v3.42  c2.511,0.08,4.221,0.66,5.021,1.28l-1.14,4.35c-0.95-0.45-2.73-1.319-5.77-1.319c-2.471,0-3.061,1.09-3.061,2.149  c0,1.2,1.119,2.03,4.529,3.2c4.681,1.59,6.471,3.66,6.471,7.09c0,3.35-2.36,6.199-7.03,6.92V46.689z"></path></svg></g><path fill="#303030" fill-rule="nonzero" d="M5.23 19.82L5.23 19.82Q3.17 19.82 2.03 18.96Q0.89 18.10 0.44 16.63Q0 15.17 0 13.37L0 13.37L0 6.50Q0 4.54 0.44 3.07Q0.89 1.61 2.03 0.80Q3.17 0 5.23 0L5.23 0Q7.06 0 8.12 0.67Q9.19 1.34 9.66 2.59Q10.13 3.84 10.13 5.59L10.13 5.59L10.13 7.13L7.56 7.13L7.56 5.76Q7.56 4.68 7.45 3.85Q7.34 3.02 6.86 2.57Q6.38 2.11 5.26 2.11L5.26 2.11Q4.10 2.11 3.58 2.60Q3.05 3.10 2.89 4.00Q2.74 4.90 2.74 6.10L2.74 6.10L2.74 13.80Q2.74 15.26 2.98 16.12Q3.22 16.97 3.77 17.33Q4.32 17.69 5.26 17.69L5.26 17.69Q6.36 17.69 6.84 17.20Q7.32 16.70 7.44 15.84Q7.56 14.98 7.56 13.82L7.56 13.82L7.56 12.38L10.13 12.38L10.13 13.82Q10.13 15.60 9.70 16.96Q9.26 18.31 8.21 19.07Q7.15 19.82 5.23 19.82ZM15.14 19.61L12.58 19.61L12.58 0.17L15.14 0.17L15.14 7.18Q15.84 6.50 16.70 6.02Q17.57 5.54 18.62 5.54L18.62 5.54Q19.44 5.54 19.88 5.98Q20.33 6.41 20.51 7.06Q20.69 7.70 20.69 8.38L20.69 8.38L20.69 19.61L18.12 19.61L18.12 9.12Q18.12 8.38 17.90 7.97Q17.69 7.56 17.02 7.56L17.02 7.56Q16.56 7.56 16.07 7.82Q15.58 8.09 15.14 8.47L15.14 8.47L15.14 19.61ZM25.68 19.80L25.68 19.80Q24.86 19.80 24.24 19.33Q23.62 18.86 23.26 18.13Q22.90 17.40 22.90 16.58L22.90 16.58Q22.90 15.29 23.33 14.40Q23.76 13.51 24.52 12.90Q25.27 12.29 26.27 11.83Q27.26 11.38 28.37 10.94L28.37 10.94L28.37 9.96Q28.37 9.12 28.27 8.57Q28.18 8.02 27.88 7.74Q27.58 7.46 26.98 7.46L26.98 7.46Q26.45 7.46 26.12 7.70Q25.80 7.94 25.66 8.39Q25.51 8.83 25.51 9.43L25.51 9.43L25.51 10.13L22.97 10.03Q23.02 7.73 24.02 6.64Q25.03 5.54 27.14 5.54L27.14 5.54Q29.21 5.54 30.07 6.67Q30.94 7.80 30.94 9.94L30.94 9.94L30.94 16.27Q30.94 16.92 30.97 17.52Q31.01 18.12 31.07 18.64Q31.13 19.15 31.18 19.61L31.18 19.61L28.82 19.61Q28.75 19.22 28.64 18.64Q28.54 18.05 28.49 17.57L28.49 17.57Q28.25 18.38 27.56 19.09Q26.88 19.80 25.68 19.80ZM26.69 17.59L26.69 17.59Q27.07 17.59 27.41 17.38Q27.74 17.16 28.01 16.88Q28.27 16.61 28.37 16.44L28.37 16.44L28.37 12.50Q27.77 12.84 27.24 13.18Q26.71 13.51 26.32 13.88Q25.92 14.26 25.69 14.72Q25.46 15.19 25.46 15.79L25.46 15.79Q25.46 16.63 25.78 17.11Q26.09 17.59 26.69 17.59ZM35.78 19.61L33.41 19.61L33.41 5.74L35.78 5.74L35.78 7.06Q36.48 6.26 37.32 5.88Q38.16 5.50 39.05 5.50L39.05 5.50Q39.82 5.50 40.43 5.88Q41.04 6.26 41.30 7.25L41.30 7.25Q42.05 6.34 42.92 5.92Q43.80 5.50 44.76 5.50L44.76 5.50Q45.43 5.50 45.98 5.82Q46.54 6.14 46.87 6.85Q47.21 7.56 47.21 8.71L47.21 8.71L47.21 19.61L44.86 19.61L44.86 8.88Q44.86 7.87 44.53 7.52Q44.21 7.18 43.66 7.18L43.66 7.18Q43.13 7.18 42.55 7.48Q41.98 7.78 41.50 8.30L41.50 8.30Q41.50 8.40 41.50 8.50Q41.50 8.59 41.50 8.71L41.50 8.71L41.50 19.61L39.14 19.61L39.14 8.88Q39.14 7.87 38.82 7.52Q38.50 7.18 37.94 7.18L37.94 7.18Q37.42 7.18 36.85 7.48Q36.29 7.78 35.78 8.30L35.78 8.30L35.78 19.61ZM54.70 19.80L54.70 19.80Q53.95 19.80 53.36 19.43Q52.78 19.06 52.34 18.60L52.34 18.60L52.34 19.61L49.78 19.61L49.78 0.17L52.34 0.17L52.34 6.84Q52.80 6.31 53.44 5.93Q54.07 5.54 54.96 5.54L54.96 5.54Q56.04 5.54 56.68 6.11Q57.31 6.67 57.62 7.52Q57.94 8.38 58.03 9.25Q58.13 10.13 58.13 10.75L58.13 10.75L58.13 14.11Q58.13 15.58 57.84 16.88Q57.55 18.19 56.81 19.00Q56.06 19.80 54.70 19.80ZM54.17 17.78L54.17 17.78Q54.84 17.78 55.13 17.29Q55.42 16.80 55.49 15.96Q55.56 15.12 55.56 14.11L55.56 14.11L55.56 10.75Q55.56 9.89 55.46 9.16Q55.37 8.42 55.06 7.99Q54.74 7.56 54.07 7.56L54.07 7.56Q53.57 7.56 53.12 7.78Q52.68 7.99 52.34 8.26L52.34 8.26L52.34 17.16Q52.68 17.42 53.15 17.60Q53.62 17.78 54.17 17.78ZM62.95 19.80L62.95 19.80Q62.14 19.80 61.51 19.33Q60.89 18.86 60.53 18.13Q60.17 17.40 60.17 16.58L60.17 16.58Q60.17 15.29 60.60 14.40Q61.03 13.51 61.79 12.90Q62.54 12.29 63.54 11.83Q64.54 11.38 65.64 10.94L65.64 10.94L65.64 9.96Q65.64 9.12 65.54 8.57Q65.45 8.02 65.15 7.74Q64.85 7.46 64.25 7.46L64.25 7.46Q63.72 7.46 63.40 7.70Q63.07 7.94 62.93 8.39Q62.78 8.83 62.78 9.43L62.78 9.43L62.78 10.13L60.24 10.03Q60.29 7.73 61.30 6.64Q62.30 5.54 64.42 5.54L64.42 5.54Q66.48 5.54 67.34 6.67Q68.21 7.80 68.21 9.94L68.21 9.94L68.21 16.27Q68.21 16.92 68.24 17.52Q68.28 18.12 68.34 18.64Q68.40 19.15 68.45 19.61L68.45 19.61L66.10 19.61Q66.02 19.22 65.92 18.64Q65.81 18.05 65.76 17.57L65.76 17.57Q65.52 18.38 64.84 19.09Q64.15 19.80 62.95 19.80ZM63.96 17.59L63.96 17.59Q64.34 17.59 64.68 17.38Q65.02 17.16 65.28 16.88Q65.54 16.61 65.64 16.44L65.64 16.44L65.64 12.50Q65.04 12.84 64.51 13.18Q63.98 13.51 63.59 13.88Q63.19 14.26 62.96 14.72Q62.74 15.19 62.74 15.79L62.74 15.79Q62.74 16.63 63.05 17.11Q63.36 17.59 63.96 17.59ZM73.25 24.17L70.68 24.17L70.68 5.74L73.25 5.74L73.25 6.84Q73.70 6.31 74.35 5.93Q75 5.54 75.89 5.54L75.89 5.54Q76.97 5.54 77.60 6.11Q78.24 6.67 78.55 7.52Q78.86 8.38 78.96 9.25Q79.06 10.13 79.06 10.75L79.06 10.75L79.06 14.11Q79.06 15.58 78.77 16.88Q78.48 18.19 77.72 19.00Q76.97 19.80 75.60 19.80L75.60 19.80Q74.86 19.80 74.28 19.43Q73.70 19.06 73.25 18.58L73.25 18.58L73.25 24.17ZM75.10 17.78L75.10 17.78Q75.77 17.78 76.06 17.29Q76.34 16.80 76.42 15.96Q76.49 15.12 76.49 14.11L76.49 14.11L76.49 10.75Q76.49 9.89 76.39 9.16Q76.30 8.42 75.98 7.99Q75.67 7.56 75 7.56L75 7.56Q74.50 7.56 74.04 7.78Q73.58 7.99 73.25 8.28L73.25 8.28L73.25 17.16Q73.61 17.42 74.06 17.60Q74.52 17.78 75.10 17.78ZM83.95 24.17L81.38 24.17L81.38 5.74L83.95 5.74L83.95 6.84Q84.41 6.31 85.06 5.93Q85.70 5.54 86.59 5.54L86.59 5.54Q87.67 5.54 88.31 6.11Q88.94 6.67 89.26 7.52Q89.57 8.38 89.66 9.25Q89.76 10.13 89.76 10.75L89.76 10.75L89.76 14.11Q89.76 15.58 89.47 16.88Q89.18 18.19 88.43 19.00Q87.67 19.80 86.30 19.80L86.30 19.80Q85.56 19.80 84.98 19.43Q84.41 19.06 83.95 18.58L83.95 18.58L83.95 24.17ZM85.80 17.78L85.80 17.78Q86.47 17.78 86.76 17.29Q87.05 16.80 87.12 15.96Q87.19 15.12 87.19 14.11L87.19 14.11L87.19 10.75Q87.19 9.89 87.10 9.16Q87 8.42 86.69 7.99Q86.38 7.56 85.70 7.56L85.70 7.56Q85.20 7.56 84.74 7.78Q84.29 7.99 83.95 8.28L83.95 8.28L83.95 17.16Q84.31 17.42 84.77 17.60Q85.22 17.78 85.80 17.78Z" transform="translate(36, 8.196)"></path></svg>